<svg xmlns="http://www.w3.org/2000/svg" viewBox="0 0 18.7 21.2" fill="none" stroke="#1980ED" stroke-width="1.5" stroke-linecap="round" stroke-linejoin="round" stroke-miterlimit="10">
<path d="M15.8,15.9V10c0-0.2,0-4-2.1-6.1c-0.7-0.7-1.9-1.1-2.9-1.3 M2.9,19.5v1h12.9v-1 M7.8,2.6
	C6.9,2.8,5.6,3.2,5,3.9C2.9,6,2.9,9.8,2.9,10v5.9 M8.6,1C8.8,0.8,9,0.8,9.3,0.8c0.3,0,0.5,0.1,0.7,0.3c0.4,0.4,0.5,1.1,0.5,1.5
	c0,0-0.1,0-0.1,0H8.2c0,0-0.1,0-0.1,0C8.1,2.2,8.2,1.5,8.6,1z M0.8,19.6v-3.7h2.1v3.7L0.8,19.6L0.8,19.6z M17.9,19.6h-2.1v-3.7h2.1
	V19.6z"/>
<path d="M5.6,14.4h2v-3.5h-2V14.4z"/>
<path d="M11.1,14.4h2v-3.5h-2V14.4z"/>
</svg>
