<svg xmlns="http://www.w3.org/2000/svg"
	 viewBox="0 0 120.3 23.9">

	<path d="M16.6,19.1H6.8L5,23.6H0l9.4-21h4.8l9.4,21h-5.1L16.6,19.1z M15.1,15.4l-3.3-8l-3.3,8H15.1z"/>
	<path d="M35.7,22.8c-0.5,0.3-1,0.6-1.7,0.8c-0.7,0.2-1.4,0.3-2.1,0.3c-1.9,0-3.4-0.5-4.5-1.5
		s-1.6-2.4-1.6-4.3v-6.6h-2.5V7.8h2.5V3.9h4.7v3.9h4v3.6h-4V18c0,0.7,0.2,1.2,0.5,1.6s0.8,0.6,1.5,0.6s1.4-0.2,1.9-0.6L35.7,22.8z"
		/>
	<path d="M38.3,1.4H43v22.3h-4.7V1.4z"/>
	<path d="M63.1,16.9H50.8c0.2,1,0.7,1.8,1.6,2.4c0.8,0.6,1.8,0.9,3.1,0.9c0.8,0,1.6-0.1,2.2-0.4
		s1.3-0.6,1.8-1.2l2.5,2.7c-1.5,1.7-3.7,2.6-6.7,2.6c-1.8,0-3.4-0.4-4.8-1.1c-1.4-0.7-2.5-1.7-3.2-3c-0.8-1.3-1.1-2.7-1.1-4.3
		s0.4-3,1.1-4.3C48,10,49,9,50.4,8.3s2.8-1.1,4.4-1.1c1.6,0,3,0.3,4.3,1s2.3,1.7,3,2.9c0.7,1.3,1.1,2.7,1.1,4.4
		C63.1,15.7,63.1,16.1,63.1,16.9z M52.1,11.7c-0.7,0.6-1.2,1.4-1.3,2.5h8c-0.2-1-0.6-1.8-1.3-2.4s-1.6-0.9-2.6-0.9
		C53.7,10.8,52.8,11.1,52.1,11.7z"/>
	<path d="M76.7,22.8c-0.5,0.3-1,0.6-1.7,0.8c-0.7,0.2-1.4,0.3-2.1,0.3c-1.9,0-3.4-0.5-4.5-1.5
		s-1.6-2.4-1.6-4.3v-6.6h-2.5V7.8h2.5V3.9h4.7v3.9h4v3.6h-4V18c0,0.7,0.2,1.2,0.5,1.6s0.8,0.6,1.5,0.6s1.4-0.2,1.9-0.6L76.7,22.8z"
		/>
	<path d="M79.3,7.5H84v16.1h-4.7V7.5z"/>
	<path d="M118.3,9c1.3,1.2,2,3,2,5.4v9.2H116v-2c-0.9,1.5-2.5,2.3-4.9,2.3c-1.2,0-2.3-0.2-3.2-0.6
		c-0.9-0.4-1.6-1-2.1-1.7s-0.7-1.6-0.7-2.5c0-1.5,0.6-2.7,1.7-3.5c1.1-0.9,2.9-1.3,5.2-1.3h3.7c0-1-0.3-1.8-0.9-2.4
		c-0.6-0.5-1.6-0.8-2.8-0.8c-0.9,0-1.7,0.1-2.5,0.4c-0.8,0.3-1.5,0.6-2.1,1.1l-1.7-3.3c0.9-0.6,1.9-1.1,3.2-1.4
		c1.2-0.3,2.5-0.5,3.8-0.5C115.1,7.2,117,7.8,118.3,9z M114.4,20.1c0.6-0.4,1.1-0.9,1.3-1.6v-1.6h-3.2c-1.9,0-2.9,0.6-2.9,1.9
		c0,0.6,0.2,1.1,0.7,1.4c0.5,0.4,1.1,0.5,1.9,0.5C113,20.7,113.7,20.5,114.4,20.1z"/>

<path style="fill:#1980ED;" d="M79.6,4.5C79,4,78.7,3.4,78.7,2.6c0-0.7,0.3-1.4,0.8-1.9S80.8,0,81.7,0c0.9,0,1.6,0.2,2.1,0.7
	s0.8,1.1,0.8,1.8c0,0.8-0.3,1.4-0.8,1.9s-1.2,0.8-2.1,0.8C80.8,5.2,80.1,5,79.6,4.5z"/>
	<path  d="M94.6,17.8l-1.7,1.8v4h-4.5v-16h4.5v6.7l6.2-6.7h5l-6.6,7.1l6.9,9h-5.3L94.6,17.8z"/>
</svg>
