<svg xmlns="http://www.w3.org/2000/svg" viewBox="0 0 22.4 21" fill="none" stroke="#1980ED" stroke-width="1.5" stroke-linecap="round" stroke-linejoin="round" stroke-miterlimit="10">
<circle cx="12.9" cy="3" r="2.3"/>
<path d="M21.7,20.2h-6.3H9.2H8.7l3.1-6c0.2-0.4,0.2-0.8,0-1.2c-0.2-0.4-0.6-0.6-1-0.6l-4.7-0.3l4.3-3.7l1.9,1.9
		c0.4,0.3,0.9,0.4,1.3,0.3L17,9.1l-1.9,10.8c0,0.1,0.1,0.3,0.2,0.3c0,0,0,0,0,0"/>
<path d="M17.6,8.9l0.1-0.1c0.6-0.3,0.9-1,0.7-1.6c-0.3-0.6-1-0.9-1.6-0.7l-3.2,1.3l-2.8-2.7c0,0,0,0,0,0
		C10,4.4,8.8,4.4,8,5.1l-6.5,5.6c-0.9,0.7-1,2-0.2,2.9c0.2,0.3,0.5,0.5,0.9,0.6c0.1,0.1,0.3,0.1,0.4,0.1l0,0c0.1,0,0.1,0,0.2,0
		l6,0.4l-2.4,4.6c-0.1,0.3-0.1,0.6-0.1,0.8H1.2"/>
<line x1="5.9" y1="20.2" x2="8.6" y2="20.2"/>
<line x1="16.5" y1="9.3" x2="17.9" y2="8.7"/>
</svg>
