<svg xmlns="http://www.w3.org/2000/svg"><symbol id="backpack" viewBox="0 0 18.7 21.2"><path d="M15.8 15.9V10c0-.2 0-4-2.1-6.1-.7-.7-1.9-1.1-2.9-1.3M2.9 19.5v1h12.9v-1m-8-16.9c-.9.2-2.2.6-2.8 1.3C2.9 6 2.9 9.8 2.9 10v5.9M8.6 1c.2-.2.4-.2.7-.2.3 0 .5.1.7.3.4.4.5 1.1.5 1.5H8.2h-.1c0-.4.1-1.1.5-1.6zM.8 19.6v-3.7h2.1v3.7H.8h0zm17.1 0h-2.1v-3.7h2.1v3.7zM5.6 14.4h2v-3.5h-2v3.5zM11.1 14.4h2v-3.5h-2v3.5z"/></symbol><symbol id="bars"><path fill-rule="evenodd" d="M0 14v-2h21v2H0zm0-8h16v2H0V6zm0-6h11v2H0V0z"/></symbol><symbol id="logo" viewBox="0 0 120.3 23.9"><path d="M16.6 19.1H6.8L5 23.6H0l9.4-21h4.8l9.4 21h-5.1l-1.9-4.5zm-1.5-3.7l-3.3-8-3.3 8h6.6zM35.7 22.8c-.5.3-1 .6-1.7.8-.7.2-1.4.3-2.1.3-1.9 0-3.4-.5-4.5-1.5s-1.6-2.4-1.6-4.3v-6.6h-2.5V7.8h2.5V3.9h4.7v3.9h4v3.6h-4V18c0 .7.2 1.2.5 1.6s.8.6 1.5.6 1.4-.2 1.9-.6l1.3 3.2zM38.3 1.4H43v22.3h-4.7V1.4zM63.1 16.9H50.8c.2 1 .7 1.8 1.6 2.4.8.6 1.8.9 3.1.9.8 0 1.6-.1 2.2-.4s1.3-.6 1.8-1.2l2.5 2.7c-1.5 1.7-3.7 2.6-6.7 2.6-1.8 0-3.4-.4-4.8-1.1-1.4-.7-2.5-1.7-3.2-3-.8-1.3-1.1-2.7-1.1-4.3s.4-3 1.1-4.3C48 10 49 9 50.4 8.3s2.8-1.1 4.4-1.1c1.6 0 3 .3 4.3 1s2.3 1.7 3 2.9c.7 1.3 1.1 2.7 1.1 4.4-.1.2-.1.6-.1 1.4zm-11-5.2c-.7.6-1.2 1.4-1.3 2.5h8c-.2-1-.6-1.8-1.3-2.4s-1.6-.9-2.6-.9c-1.2-.1-2.1.2-2.8.8zM76.7 22.8c-.5.3-1 .6-1.7.8-.7.2-1.4.3-2.1.3-1.9 0-3.4-.5-4.5-1.5s-1.6-2.4-1.6-4.3v-6.6h-2.5V7.8h2.5V3.9h4.7v3.9h4v3.6h-4V18c0 .7.2 1.2.5 1.6s.8.6 1.5.6 1.4-.2 1.9-.6l1.3 3.2zM79.3 7.5H84v16.1h-4.7V7.5zM118.3 9c1.3 1.2 2 3 2 5.4v9.2H116v-2c-.9 1.5-2.5 2.3-4.9 2.3-1.2 0-2.3-.2-3.2-.6-.9-.4-1.6-1-2.1-1.7s-.7-1.6-.7-2.5c0-1.5.6-2.7 1.7-3.5 1.1-.9 2.9-1.3 5.2-1.3h3.7c0-1-.3-1.8-.9-2.4-.6-.5-1.6-.8-2.8-.8-.9 0-1.7.1-2.5.4-.8.3-1.5.6-2.1 1.1l-1.7-3.3c.9-.6 1.9-1.1 3.2-1.4 1.2-.3 2.5-.5 3.8-.5 2.4-.2 4.3.4 5.6 1.6zm-3.9 11.1c.6-.4 1.1-.9 1.3-1.6v-1.6h-3.2c-1.9 0-2.9.6-2.9 1.9 0 .6.2 1.1.7 1.4.5.4 1.1.5 1.9.5.8 0 1.5-.2 2.2-.6z"/><path d="M79.6 4.5c-.6-.5-.9-1.1-.9-1.9 0-.7.3-1.4.8-1.9s1.3-.7 2.2-.7c.9 0 1.6.2 2.1.7s.8 1.1.8 1.8c0 .8-.3 1.4-.8 1.9s-1.2.8-2.1.8c-.9 0-1.6-.2-2.1-.7z" fill="#1980ed"/><path d="M94.6 17.8l-1.7 1.8v4h-4.5v-16h4.5v6.7l6.2-6.7h5l-6.6 7.1 6.9 9h-5.3l-4.5-5.9z"/></symbol><symbol id="skiing" viewBox="0 0 22.4 21"><circle cx="12.9" cy="3" r="2.3"/><path d="M21.7 20.2h-13l3.1-6c.2-.4.2-.8 0-1.2-.2-.4-.6-.6-1-.6l-4.7-.3 4.3-3.7 1.9 1.9c.4.3.9.4 1.3.3L17 9.1l-1.9 10.8c0 .1.1.3.2.3 0 0 0 0 0 0"/><path d="M17.6 8.9l.1-.1c.6-.3.9-1 .7-1.6-.3-.6-1-.9-1.6-.7l-3.2 1.3-2.8-2.7s0 0 0 0c-.8-.7-2-.7-2.8 0l-6.5 5.6c-.9.7-1 2-.2 2.9.2.3.5.5.9.6.1.1.3.1.4.1h.2l6 .4-2.4 4.6c-.1.3-.1.6-.1.8H1.2M5.9 20.2h2.7M16.5 9.3l1.4-.6"/></symbol></svg>
